<svg xmlns="http://www.w3.org/2000/svg" xmlns:xlink="http://www.w3.org/1999/xlink" zoomAndPan="magnify" preserveAspectRatio="xMidYMid meet" version="1.0" viewBox="11.43 47.05 131.73 54.81"><defs><g/><clipPath id="680ef74d4c"><path d="M 112 14 L 129.441406 14 L 129.441406 42 L 112 42 Z M 112 14 " clip-rule="nonzero"/></clipPath><clipPath id="e44ce86ae5"><rect x="0" width="130" y="0" height="61"/></clipPath><clipPath id="cc83fe34d2"><path d="M 0.359375 2 L 4 2 L 4 6 L 0.359375 6 Z M 0.359375 2 " clip-rule="nonzero"/></clipPath><clipPath id="34b04fff7a"><rect x="0" width="36" y="0" height="15"/></clipPath><clipPath id="0072c2a6d5"><path d="M 131.644531 48.054688 L 142.144531 48.054688 L 142.144531 58.554688 L 131.644531 58.554688 Z M 131.644531 48.054688 " clip-rule="nonzero"/></clipPath><clipPath id="52561bd2db"><path d="M 136.90625 48.054688 C 134 48.054688 131.644531 50.410156 131.644531 53.316406 C 131.644531 56.222656 134 58.578125 136.90625 58.578125 C 139.8125 58.578125 142.167969 56.222656 142.167969 53.316406 C 142.167969 50.410156 139.8125 48.054688 136.90625 48.054688 Z M 136.90625 48.054688 " clip-rule="nonzero"/></clipPath><clipPath id="b8bf1e6370"><path d="M 0.121094 1 L 3.71875 1 L 3.71875 5 L 0.121094 5 Z M 0.121094 1 " clip-rule="nonzero"/></clipPath><clipPath id="ca2a452e5f"><rect x="0" width="4" y="0" height="7"/></clipPath></defs><g transform="matrix(1, 0, 0, 1, 10, 46)"><g clip-path="url(#e44ce86ae5)"><g fill="#ff914d" fill-opacity="1"><g transform="translate(0.836894, 41.349781)"><g><path d="M 6.515625 -0.078125 C 5.992188 -0.078125 5.429688 -0.0546875 4.828125 -0.015625 C 4.222656 0.0234375 3.640625 -0.0078125 3.078125 -0.125 C 2.515625 -0.25 2.015625 -0.519531 1.578125 -0.9375 C 1.097656 -1.414062 0.804688 -1.976562 0.703125 -2.625 C 0.597656 -3.28125 0.570312 -3.96875 0.625 -4.6875 C 0.675781 -5.40625 0.71875 -6.054688 0.75 -6.640625 C 0.800781 -7.765625 0.851562 -8.878906 0.90625 -9.984375 C 0.957031 -11.097656 1.007812 -12.21875 1.0625 -13.34375 C 1.113281 -14.65625 1.171875 -15.972656 1.234375 -17.296875 C 1.296875 -18.617188 1.34375 -19.9375 1.375 -21.25 C 1.425781 -21.976562 1.425781 -22.785156 1.375 -23.671875 C 1.320312 -24.566406 1.425781 -25.367188 1.6875 -26.078125 C 1.925781 -26.722656 2.363281 -27.207031 3 -27.53125 C 3.644531 -27.863281 4.398438 -28.078125 5.265625 -28.171875 C 6.128906 -28.265625 7.023438 -28.273438 7.953125 -28.203125 C 8.878906 -28.140625 9.753906 -28.050781 10.578125 -27.9375 C 11.398438 -27.820312 12.078125 -27.722656 12.609375 -27.640625 C 13.203125 -27.566406 13.773438 -27.445312 14.328125 -27.28125 C 14.878906 -27.125 15.34375 -26.867188 15.71875 -26.515625 C 16.101562 -26.171875 16.332031 -25.644531 16.40625 -24.9375 C 16.507812 -24.195312 16.390625 -23.523438 16.046875 -22.921875 C 15.710938 -22.328125 15.207031 -21.882812 14.53125 -21.59375 C 14.007812 -21.382812 13.484375 -21.316406 12.953125 -21.390625 C 12.429688 -21.472656 11.910156 -21.566406 11.390625 -21.671875 C 10.867188 -21.773438 10.359375 -21.765625 9.859375 -21.640625 C 9.546875 -21.585938 9.226562 -21.375 8.90625 -21 C 8.59375 -20.632812 8.414062 -20.226562 8.375 -19.78125 C 8.34375 -19.34375 8.546875 -18.953125 8.984375 -18.609375 C 9.328125 -18.378906 9.8125 -18.273438 10.4375 -18.296875 C 11.070312 -18.328125 11.722656 -18.367188 12.390625 -18.421875 C 13.054688 -18.472656 13.597656 -18.421875 14.015625 -18.265625 C 14.691406 -17.992188 15.164062 -17.648438 15.4375 -17.234375 C 15.71875 -16.816406 15.882812 -16.269531 15.9375 -15.59375 C 16.039062 -14.78125 15.960938 -13.957031 15.703125 -13.125 C 15.441406 -12.300781 14.878906 -11.757812 14.015625 -11.5 C 13.492188 -11.375 12.929688 -11.378906 12.328125 -11.515625 C 11.722656 -11.660156 11.132812 -11.765625 10.5625 -11.828125 C 9.988281 -11.898438 9.476562 -11.726562 9.03125 -11.3125 C 8.476562 -10.78125 8.25 -10.3125 8.34375 -9.90625 C 8.4375 -9.507812 8.71875 -9.164062 9.1875 -8.875 C 9.65625 -8.582031 10.171875 -8.359375 10.734375 -8.203125 C 11.296875 -8.046875 11.765625 -7.957031 12.140625 -7.9375 C 12.679688 -7.90625 13.28125 -7.910156 13.9375 -7.953125 C 14.59375 -7.992188 15.234375 -7.976562 15.859375 -7.90625 C 16.492188 -7.84375 17.046875 -7.628906 17.515625 -7.265625 C 17.960938 -6.953125 18.242188 -6.503906 18.359375 -5.921875 C 18.472656 -5.347656 18.488281 -4.765625 18.40625 -4.171875 C 18.332031 -3.585938 18.21875 -3.070312 18.0625 -2.625 C 17.664062 -1.65625 17.101562 -1.035156 16.375 -0.765625 C 15.644531 -0.492188 14.78125 -0.332031 13.78125 -0.28125 C 12.570312 -0.226562 11.363281 -0.191406 10.15625 -0.171875 C 8.957031 -0.160156 7.742188 -0.128906 6.515625 -0.078125 Z M 6.515625 -0.078125 "/></g></g></g><g fill="#ff914d" fill-opacity="1"><g transform="translate(18.702925, 41.349781)"><g><path d="M 7.890625 -0.90625 C 7.335938 -1.425781 6.878906 -2.039062 6.515625 -2.75 C 6.148438 -3.457031 5.835938 -4.195312 5.578125 -4.96875 C 5.316406 -5.738281 5.03125 -6.453125 4.71875 -7.109375 C 4.53125 -7.503906 4.238281 -8.085938 3.84375 -8.859375 C 3.457031 -9.628906 3.039062 -10.503906 2.59375 -11.484375 C 2.144531 -12.460938 1.742188 -13.472656 1.390625 -14.515625 C 1.035156 -15.566406 0.785156 -16.578125 0.640625 -17.546875 C 0.503906 -18.515625 0.550781 -19.359375 0.78125 -20.078125 C 1.019531 -20.804688 1.519531 -21.328125 2.28125 -21.640625 C 2.988281 -21.953125 3.660156 -21.894531 4.296875 -21.46875 C 4.941406 -21.050781 5.546875 -20.40625 6.109375 -19.53125 C 6.671875 -18.65625 7.191406 -17.664062 7.671875 -16.5625 C 8.160156 -15.46875 8.585938 -14.367188 8.953125 -13.265625 C 9.316406 -12.171875 9.628906 -11.191406 9.890625 -10.328125 C 10.148438 -9.460938 10.347656 -8.847656 10.484375 -8.484375 C 10.671875 -8.929688 10.921875 -9.617188 11.234375 -10.546875 C 11.546875 -11.472656 11.910156 -12.503906 12.328125 -13.640625 C 12.742188 -14.785156 13.21875 -15.90625 13.75 -17 C 14.289062 -18.101562 14.875 -19.066406 15.5 -19.890625 C 16.132812 -20.710938 16.8125 -21.265625 17.53125 -21.546875 C 18.25 -21.835938 19.015625 -21.722656 19.828125 -21.203125 C 20.722656 -20.628906 21.253906 -19.863281 21.421875 -18.90625 C 21.585938 -17.945312 21.503906 -16.875 21.171875 -15.6875 C 20.847656 -14.5 20.375 -13.273438 19.75 -12.015625 C 19.125 -10.753906 18.4375 -9.539062 17.6875 -8.375 C 16.9375 -7.21875 16.234375 -6.171875 15.578125 -5.234375 C 14.929688 -4.304688 14.425781 -3.582031 14.0625 -3.0625 C 13.582031 -2.351562 13.019531 -1.695312 12.375 -1.09375 C 11.738281 -0.5 11.039062 -0.132812 10.28125 0 C 9.53125 0.132812 8.734375 -0.164062 7.890625 -0.90625 Z M 7.890625 -0.90625 "/></g></g></g><g fill="#ff914d" fill-opacity="1"><g transform="translate(39.592458, 41.349781)"><g><path d="M 6.515625 -0.078125 C 5.992188 -0.078125 5.429688 -0.0546875 4.828125 -0.015625 C 4.222656 0.0234375 3.640625 -0.0078125 3.078125 -0.125 C 2.515625 -0.25 2.015625 -0.519531 1.578125 -0.9375 C 1.097656 -1.414062 0.804688 -1.976562 0.703125 -2.625 C 0.597656 -3.28125 0.570312 -3.96875 0.625 -4.6875 C 0.675781 -5.40625 0.71875 -6.054688 0.75 -6.640625 C 0.800781 -7.765625 0.851562 -8.878906 0.90625 -9.984375 C 0.957031 -11.097656 1.007812 -12.21875 1.0625 -13.34375 C 1.113281 -14.65625 1.171875 -15.972656 1.234375 -17.296875 C 1.296875 -18.617188 1.34375 -19.9375 1.375 -21.25 C 1.425781 -21.976562 1.425781 -22.785156 1.375 -23.671875 C 1.320312 -24.566406 1.425781 -25.367188 1.6875 -26.078125 C 1.925781 -26.722656 2.363281 -27.207031 3 -27.53125 C 3.644531 -27.863281 4.398438 -28.078125 5.265625 -28.171875 C 6.128906 -28.265625 7.023438 -28.273438 7.953125 -28.203125 C 8.878906 -28.140625 9.753906 -28.050781 10.578125 -27.9375 C 11.398438 -27.820312 12.078125 -27.722656 12.609375 -27.640625 C 13.203125 -27.566406 13.773438 -27.445312 14.328125 -27.28125 C 14.878906 -27.125 15.34375 -26.867188 15.71875 -26.515625 C 16.101562 -26.171875 16.332031 -25.644531 16.40625 -24.9375 C 16.507812 -24.195312 16.390625 -23.523438 16.046875 -22.921875 C 15.710938 -22.328125 15.207031 -21.882812 14.53125 -21.59375 C 14.007812 -21.382812 13.484375 -21.316406 12.953125 -21.390625 C 12.429688 -21.472656 11.910156 -21.566406 11.390625 -21.671875 C 10.867188 -21.773438 10.359375 -21.765625 9.859375 -21.640625 C 9.546875 -21.585938 9.226562 -21.375 8.90625 -21 C 8.59375 -20.632812 8.414062 -20.226562 8.375 -19.78125 C 8.34375 -19.34375 8.546875 -18.953125 8.984375 -18.609375 C 9.328125 -18.378906 9.8125 -18.273438 10.4375 -18.296875 C 11.070312 -18.328125 11.722656 -18.367188 12.390625 -18.421875 C 13.054688 -18.472656 13.597656 -18.421875 14.015625 -18.265625 C 14.691406 -17.992188 15.164062 -17.648438 15.4375 -17.234375 C 15.71875 -16.816406 15.882812 -16.269531 15.9375 -15.59375 C 16.039062 -14.78125 15.960938 -13.957031 15.703125 -13.125 C 15.441406 -12.300781 14.878906 -11.757812 14.015625 -11.5 C 13.492188 -11.375 12.929688 -11.378906 12.328125 -11.515625 C 11.722656 -11.660156 11.132812 -11.765625 10.5625 -11.828125 C 9.988281 -11.898438 9.476562 -11.726562 9.03125 -11.3125 C 8.476562 -10.78125 8.25 -10.3125 8.34375 -9.90625 C 8.4375 -9.507812 8.71875 -9.164062 9.1875 -8.875 C 9.65625 -8.582031 10.171875 -8.359375 10.734375 -8.203125 C 11.296875 -8.046875 11.765625 -7.957031 12.140625 -7.9375 C 12.679688 -7.90625 13.28125 -7.910156 13.9375 -7.953125 C 14.59375 -7.992188 15.234375 -7.976562 15.859375 -7.90625 C 16.492188 -7.84375 17.046875 -7.628906 17.515625 -7.265625 C 17.960938 -6.953125 18.242188 -6.503906 18.359375 -5.921875 C 18.472656 -5.347656 18.488281 -4.765625 18.40625 -4.171875 C 18.332031 -3.585938 18.21875 -3.070312 18.0625 -2.625 C 17.664062 -1.65625 17.101562 -1.035156 16.375 -0.765625 C 15.644531 -0.492188 14.78125 -0.332031 13.78125 -0.28125 C 12.570312 -0.226562 11.363281 -0.191406 10.15625 -0.171875 C 8.957031 -0.160156 7.742188 -0.128906 6.515625 -0.078125 Z M 6.515625 -0.078125 "/></g></g></g><g fill="#ff914d" fill-opacity="1"><g transform="translate(57.458489, 41.349781)"><g><path d="M 1.84375 -0.75 C 1.394531 -1.238281 1.078125 -1.875 0.890625 -2.65625 C 0.710938 -3.445312 0.617188 -4.296875 0.609375 -5.203125 C 0.597656 -6.109375 0.625 -6.984375 0.6875 -7.828125 C 0.75 -8.679688 0.796875 -9.410156 0.828125 -10.015625 C 0.878906 -10.722656 0.90625 -11.578125 0.90625 -12.578125 C 0.90625 -13.585938 0.9375 -14.65625 1 -15.78125 C 1.0625 -16.90625 1.195312 -18.003906 1.40625 -19.078125 C 1.625 -20.148438 1.945312 -21.09375 2.375 -21.90625 C 2.8125 -22.71875 3.394531 -23.304688 4.125 -23.671875 C 4.90625 -24.066406 5.679688 -24.171875 6.453125 -23.984375 C 7.234375 -23.804688 7.945312 -23.460938 8.59375 -22.953125 C 9.25 -22.441406 9.773438 -21.859375 10.171875 -21.203125 C 10.929688 -19.992188 11.578125 -18.75 12.109375 -17.46875 C 12.648438 -16.1875 13.3125 -14.929688 14.09375 -13.703125 C 14.070312 -14.328125 14.015625 -15.039062 13.921875 -15.84375 C 13.828125 -16.644531 13.78125 -17.457031 13.78125 -18.28125 C 13.78125 -19.101562 13.878906 -19.882812 14.078125 -20.625 C 14.273438 -21.375 14.625 -22.007812 15.125 -22.53125 C 15.769531 -23.21875 16.457031 -23.566406 17.1875 -23.578125 C 17.925781 -23.585938 18.582031 -23.347656 19.15625 -22.859375 C 19.738281 -22.378906 20.082031 -21.695312 20.1875 -20.8125 C 20.363281 -19.601562 20.523438 -18.226562 20.671875 -16.6875 C 20.816406 -15.144531 20.878906 -13.5625 20.859375 -11.9375 C 20.847656 -10.3125 20.722656 -8.738281 20.484375 -7.21875 C 20.253906 -5.707031 19.863281 -4.363281 19.3125 -3.1875 C 18.71875 -1.894531 18.054688 -1.140625 17.328125 -0.921875 C 16.609375 -0.703125 15.859375 -0.835938 15.078125 -1.328125 C 14.296875 -1.828125 13.523438 -2.546875 12.765625 -3.484375 C 12.003906 -4.429688 11.289062 -5.441406 10.625 -6.515625 C 9.957031 -7.585938 9.367188 -8.582031 8.859375 -9.5 C 8.347656 -10.414062 7.960938 -11.097656 7.703125 -11.546875 C 7.648438 -11.285156 7.550781 -10.75 7.40625 -9.9375 C 7.257812 -9.125 7.066406 -8.191406 6.828125 -7.140625 C 6.597656 -6.097656 6.320312 -5.066406 6 -4.046875 C 5.6875 -3.023438 5.328125 -2.144531 4.921875 -1.40625 C 4.515625 -0.675781 4.054688 -0.21875 3.546875 -0.03125 C 3.035156 0.144531 2.46875 -0.09375 1.84375 -0.75 Z M 1.84375 -0.75 "/></g></g></g><g fill="#ff914d" fill-opacity="1"><g transform="translate(77.759028, 41.349781)"><g><path d="M 9.734375 0 C 8.972656 0 8.375 -0.179688 7.9375 -0.546875 C 7.507812 -0.910156 7.195312 -1.382812 7 -1.96875 C 6.8125 -2.5625 6.703125 -3.1875 6.671875 -3.84375 C 6.648438 -4.5 6.648438 -5.101562 6.671875 -5.65625 C 6.753906 -7.851562 6.875 -10.035156 7.03125 -12.203125 C 7.1875 -14.378906 7.222656 -16.582031 7.140625 -18.8125 C 6.441406 -18.78125 5.675781 -18.757812 4.84375 -18.75 C 4.019531 -18.738281 3.25 -18.867188 2.53125 -19.140625 C 1.8125 -19.410156 1.269531 -19.925781 0.90625 -20.6875 C 0.539062 -21.445312 0.476562 -22.234375 0.71875 -23.046875 C 0.96875 -23.859375 1.488281 -24.4375 2.28125 -24.78125 C 2.882812 -25.0625 3.632812 -25.171875 4.53125 -25.109375 C 5.4375 -25.046875 6.351562 -24.941406 7.28125 -24.796875 C 8.207031 -24.648438 9 -24.550781 9.65625 -24.5 C 10.78125 -24.445312 11.972656 -24.429688 13.234375 -24.453125 C 14.492188 -24.484375 15.644531 -24.25 16.6875 -23.75 C 17.15625 -23.539062 17.550781 -23.210938 17.875 -22.765625 C 18.207031 -22.328125 18.398438 -21.84375 18.453125 -21.3125 C 18.503906 -20.789062 18.347656 -20.296875 17.984375 -19.828125 C 17.640625 -19.378906 17.117188 -19.082031 16.421875 -18.9375 C 15.734375 -18.800781 15.015625 -18.738281 14.265625 -18.75 C 13.523438 -18.757812 12.894531 -18.765625 12.375 -18.765625 C 12.445312 -18.242188 12.570312 -17.425781 12.75 -16.3125 C 12.9375 -15.195312 13.113281 -13.9375 13.28125 -12.53125 C 13.457031 -11.132812 13.554688 -9.710938 13.578125 -8.265625 C 13.609375 -6.816406 13.519531 -5.46875 13.3125 -4.21875 C 13.101562 -2.976562 12.71875 -1.972656 12.15625 -1.203125 C 11.59375 -0.429688 10.785156 -0.03125 9.734375 0 Z M 9.734375 0 "/></g></g></g><g fill="#ff914d" fill-opacity="1"><g transform="translate(95.036065, 41.349781)"><g><path d="M 15.203125 -0.625 C 14.460938 -0.238281 13.59375 -0.03125 12.59375 0 C 11.601562 0.03125 10.597656 -0.0351562 9.578125 -0.203125 C 8.554688 -0.378906 7.65625 -0.535156 6.875 -0.671875 C 5.164062 -0.953125 3.769531 -1.507812 2.6875 -2.34375 C 1.601562 -3.1875 0.96875 -4.515625 0.78125 -6.328125 C 0.625 -7.941406 0.554688 -9.613281 0.578125 -11.34375 C 0.609375 -13.070312 0.640625 -14.75 0.671875 -16.375 C 0.671875 -17.289062 0.679688 -18.300781 0.703125 -19.40625 C 0.734375 -20.519531 0.867188 -21.601562 1.109375 -22.65625 C 1.359375 -23.707031 1.800781 -24.609375 2.4375 -25.359375 C 3.113281 -26.171875 3.847656 -26.613281 4.640625 -26.6875 C 5.441406 -26.769531 6.175781 -26.566406 6.84375 -26.078125 C 7.519531 -25.597656 8 -24.890625 8.28125 -23.953125 C 8.675781 -22.828125 8.898438 -21.613281 8.953125 -20.3125 C 9.003906 -19.019531 8.988281 -17.722656 8.90625 -16.421875 C 8.832031 -15.128906 8.769531 -13.894531 8.71875 -12.71875 C 8.6875 -12.300781 8.640625 -11.847656 8.578125 -11.359375 C 8.515625 -10.878906 8.507812 -10.414062 8.5625 -9.96875 C 8.632812 -9.425781 8.679688 -9.085938 8.703125 -8.953125 C 8.734375 -8.816406 8.832031 -8.769531 9 -8.8125 C 9.175781 -8.851562 9.5 -8.820312 9.96875 -8.71875 C 10.625 -8.613281 11.257812 -8.546875 11.875 -8.515625 C 12.488281 -8.492188 13.085938 -8.4375 13.671875 -8.34375 C 14.265625 -8.25 14.851562 -8.007812 15.4375 -7.625 C 16.25 -7.09375 16.773438 -6.363281 17.015625 -5.4375 C 17.265625 -4.507812 17.238281 -3.59375 16.9375 -2.6875 C 16.632812 -1.78125 16.054688 -1.09375 15.203125 -0.625 Z M 15.203125 -0.625 "/></g></g></g><g clip-path="url(#680ef74d4c)"><g fill="#ff914d" fill-opacity="1"><g transform="translate(111.606306, 41.349781)"><g><path d="M 11.15625 -1.09375 C 10.84375 -0.5 10.332031 -0.125 9.625 0.03125 C 8.914062 0.195312 8.179688 0.128906 7.421875 -0.171875 C 6.660156 -0.472656 6.03125 -0.992188 5.53125 -1.734375 C 5.0625 -2.429688 4.773438 -3.285156 4.671875 -4.296875 C 4.566406 -5.304688 4.546875 -6.367188 4.609375 -7.484375 C 4.679688 -8.597656 4.753906 -9.675781 4.828125 -10.71875 C 4.910156 -11.769531 4.910156 -12.6875 4.828125 -13.46875 C 4.703125 -14.507812 4.351562 -15.507812 3.78125 -16.46875 C 3.21875 -17.425781 2.632812 -18.378906 2.03125 -19.328125 C 1.4375 -20.285156 1.007812 -21.300781 0.75 -22.375 C 0.507812 -23.34375 0.539062 -24.234375 0.84375 -25.046875 C 1.144531 -25.859375 1.664062 -26.421875 2.40625 -26.734375 C 3.15625 -27.054688 4.054688 -26.953125 5.109375 -26.421875 C 6.023438 -25.984375 6.71875 -25.332031 7.1875 -24.46875 C 7.65625 -23.601562 8.039062 -22.675781 8.34375 -21.6875 C 8.644531 -20.707031 8.976562 -19.800781 9.34375 -18.96875 C 9.601562 -19.414062 9.90625 -19.976562 10.25 -20.65625 C 10.59375 -21.332031 10.960938 -22.035156 11.359375 -22.765625 C 11.765625 -23.503906 12.21875 -24.15625 12.71875 -24.71875 C 13.21875 -25.28125 13.757812 -25.671875 14.34375 -25.890625 C 14.9375 -26.117188 15.585938 -26.0625 16.296875 -25.71875 C 16.867188 -25.457031 17.234375 -25.078125 17.390625 -24.578125 C 17.546875 -24.078125 17.578125 -23.523438 17.484375 -22.921875 C 17.398438 -22.328125 17.242188 -21.738281 17.015625 -21.15625 C 16.796875 -20.582031 16.59375 -20.101562 16.40625 -19.71875 C 16.070312 -18.976562 15.679688 -18.257812 15.234375 -17.5625 C 14.785156 -16.875 14.34375 -16.191406 13.90625 -15.515625 C 13.425781 -14.828125 13.085938 -14.253906 12.890625 -13.796875 C 12.703125 -13.335938 12.597656 -12.851562 12.578125 -12.34375 C 12.566406 -11.832031 12.613281 -11.160156 12.71875 -10.328125 C 12.820312 -8.992188 12.882812 -7.753906 12.90625 -6.609375 C 12.9375 -5.472656 12.828125 -4.441406 12.578125 -3.515625 C 12.335938 -2.585938 11.863281 -1.78125 11.15625 -1.09375 Z M 11.15625 -1.09375 "/></g></g></g></g></g></g><g transform="matrix(1, 0, 0, 1, 57, 90)"><g clip-path="url(#34b04fff7a)"><g clip-path="url(#cc83fe34d2)"><g fill="#ff914d" fill-opacity="1"><g transform="translate(0.736375, 5.838431)"><g><path d="M 2.71875 -3.625 C 2.78125 -3.695312 2.851562 -3.734375 2.9375 -3.734375 C 3.019531 -3.734375 3.09375 -3.703125 3.15625 -3.640625 C 3.21875 -3.578125 3.25 -3.503906 3.25 -3.421875 C 3.25 -3.359375 3.222656 -3.296875 3.171875 -3.234375 L 1.984375 -1.765625 L 1.984375 -0.3125 C 1.984375 -0.195312 1.953125 -0.109375 1.890625 -0.046875 C 1.828125 0.00390625 1.742188 0.03125 1.640625 0.03125 C 1.535156 0.03125 1.453125 0.00390625 1.390625 -0.046875 C 1.328125 -0.109375 1.296875 -0.195312 1.296875 -0.3125 L 1.296875 -1.765625 L 0.109375 -3.234375 C 0.0546875 -3.296875 0.03125 -3.359375 0.03125 -3.421875 C 0.03125 -3.503906 0.0625 -3.578125 0.125 -3.640625 C 0.1875 -3.703125 0.257812 -3.734375 0.34375 -3.734375 C 0.425781 -3.734375 0.5 -3.695312 0.5625 -3.625 L 1.640625 -2.28125 Z M 2.71875 -3.625 "/></g></g></g></g><g fill="#ff914d" fill-opacity="1"><g transform="translate(3.960313, 5.838431)"><g><path d="M 2.046875 0.046875 C 1.691406 0.046875 1.378906 -0.03125 1.109375 -0.1875 C 0.847656 -0.34375 0.644531 -0.5625 0.5 -0.84375 C 0.351562 -1.132812 0.28125 -1.472656 0.28125 -1.859375 C 0.28125 -2.242188 0.347656 -2.578125 0.484375 -2.859375 C 0.628906 -3.148438 0.835938 -3.375 1.109375 -3.53125 C 1.378906 -3.6875 1.691406 -3.765625 2.046875 -3.765625 C 2.410156 -3.765625 2.722656 -3.6875 2.984375 -3.53125 C 3.253906 -3.375 3.457031 -3.148438 3.59375 -2.859375 C 3.738281 -2.578125 3.8125 -2.242188 3.8125 -1.859375 C 3.8125 -1.472656 3.738281 -1.132812 3.59375 -0.84375 C 3.457031 -0.5625 3.253906 -0.34375 2.984375 -0.1875 C 2.722656 -0.03125 2.410156 0.046875 2.046875 0.046875 Z M 2.046875 -0.5 C 2.390625 -0.5 2.65625 -0.613281 2.84375 -0.84375 C 3.039062 -1.082031 3.140625 -1.421875 3.140625 -1.859375 C 3.140625 -2.296875 3.039062 -2.628906 2.84375 -2.859375 C 2.65625 -3.097656 2.390625 -3.21875 2.046875 -3.21875 C 1.703125 -3.21875 1.4375 -3.097656 1.25 -2.859375 C 1.0625 -2.628906 0.96875 -2.296875 0.96875 -1.859375 C 0.96875 -1.421875 1.0625 -1.082031 1.25 -0.84375 C 1.4375 -0.613281 1.703125 -0.5 2.046875 -0.5 Z M 2.046875 -0.5 "/></g></g></g><g fill="#ff914d" fill-opacity="1"><g transform="translate(8.004709, 5.838431)"><g><path d="M 1.9375 0.046875 C 1.425781 0.046875 1.035156 -0.0820312 0.765625 -0.34375 C 0.503906 -0.613281 0.375 -1 0.375 -1.5 L 0.375 -3.40625 C 0.375 -3.5 0.40625 -3.578125 0.46875 -3.640625 C 0.53125 -3.703125 0.609375 -3.734375 0.703125 -3.734375 C 0.804688 -3.734375 0.890625 -3.703125 0.953125 -3.640625 C 1.015625 -3.578125 1.046875 -3.5 1.046875 -3.40625 L 1.046875 -1.46875 C 1.046875 -1.144531 1.117188 -0.898438 1.265625 -0.734375 C 1.421875 -0.578125 1.644531 -0.5 1.9375 -0.5 C 2.21875 -0.5 2.429688 -0.578125 2.578125 -0.734375 C 2.734375 -0.898438 2.8125 -1.144531 2.8125 -1.46875 L 2.8125 -3.40625 C 2.8125 -3.5 2.84375 -3.578125 2.90625 -3.640625 C 2.96875 -3.703125 3.050781 -3.734375 3.15625 -3.734375 C 3.25 -3.734375 3.328125 -3.703125 3.390625 -3.640625 C 3.453125 -3.578125 3.484375 -3.5 3.484375 -3.40625 L 3.484375 -1.5 C 3.484375 -1 3.347656 -0.613281 3.078125 -0.34375 C 2.816406 -0.0820312 2.4375 0.046875 1.9375 0.046875 Z M 1.9375 0.046875 "/></g></g></g><g fill="#ff914d" fill-opacity="1"><g transform="translate(11.807178, 5.838431)"><g><path d="M 3.375 -0.421875 C 3.414062 -0.359375 3.4375 -0.300781 3.4375 -0.25 C 3.4375 -0.164062 3.398438 -0.0976562 3.328125 -0.046875 C 3.265625 0.00390625 3.191406 0.03125 3.109375 0.03125 C 3.046875 0.03125 2.988281 0.0195312 2.9375 0 C 2.894531 -0.03125 2.851562 -0.0703125 2.8125 -0.125 L 2.109375 -1.1875 C 2.046875 -1.300781 1.972656 -1.378906 1.890625 -1.421875 C 1.816406 -1.460938 1.710938 -1.484375 1.578125 -1.484375 L 1.0625 -1.484375 L 1.0625 -0.3125 C 1.0625 -0.207031 1.03125 -0.125 0.96875 -0.0625 C 0.914062 0 0.835938 0.03125 0.734375 0.03125 C 0.628906 0.03125 0.546875 0 0.484375 -0.0625 C 0.429688 -0.125 0.40625 -0.207031 0.40625 -0.3125 L 0.40625 -3.390625 C 0.40625 -3.492188 0.429688 -3.570312 0.484375 -3.625 C 0.546875 -3.6875 0.628906 -3.71875 0.734375 -3.71875 L 2.046875 -3.71875 C 2.460938 -3.71875 2.78125 -3.625 3 -3.4375 C 3.21875 -3.25 3.328125 -2.972656 3.328125 -2.609375 C 3.328125 -2.328125 3.242188 -2.09375 3.078125 -1.90625 C 2.921875 -1.71875 2.691406 -1.597656 2.390625 -1.546875 C 2.492188 -1.523438 2.582031 -1.484375 2.65625 -1.421875 C 2.738281 -1.359375 2.816406 -1.269531 2.890625 -1.15625 Z M 1.953125 -2.015625 C 2.203125 -2.015625 2.382812 -2.0625 2.5 -2.15625 C 2.625 -2.25 2.6875 -2.394531 2.6875 -2.59375 C 2.6875 -2.800781 2.625 -2.953125 2.5 -3.046875 C 2.382812 -3.140625 2.203125 -3.1875 1.953125 -3.1875 L 1.0625 -3.1875 L 1.0625 -2.015625 Z M 1.953125 -2.015625 "/></g></g></g><g fill="#ff914d" fill-opacity="1"><g transform="translate(15.409792, 5.838431)"><g/></g></g><g fill="#ff914d" fill-opacity="1"><g transform="translate(16.782442, 5.838431)"><g><path d="M 1.6875 0.046875 C 1.414062 0.046875 1.160156 0.0078125 0.921875 -0.0625 C 0.679688 -0.132812 0.484375 -0.234375 0.328125 -0.359375 C 0.242188 -0.410156 0.203125 -0.492188 0.203125 -0.609375 C 0.203125 -0.679688 0.222656 -0.742188 0.265625 -0.796875 C 0.316406 -0.847656 0.375 -0.875 0.4375 -0.875 C 0.5 -0.875 0.566406 -0.851562 0.640625 -0.8125 C 0.796875 -0.695312 0.957031 -0.613281 1.125 -0.5625 C 1.289062 -0.519531 1.472656 -0.5 1.671875 -0.5 C 1.921875 -0.5 2.113281 -0.539062 2.25 -0.625 C 2.394531 -0.71875 2.46875 -0.847656 2.46875 -1.015625 C 2.46875 -1.148438 2.398438 -1.253906 2.265625 -1.328125 C 2.140625 -1.398438 1.925781 -1.46875 1.625 -1.53125 C 1.320312 -1.601562 1.070312 -1.679688 0.875 -1.765625 C 0.6875 -1.859375 0.539062 -1.972656 0.4375 -2.109375 C 0.34375 -2.242188 0.296875 -2.414062 0.296875 -2.625 C 0.296875 -2.84375 0.351562 -3.035156 0.46875 -3.203125 C 0.59375 -3.378906 0.765625 -3.515625 0.984375 -3.609375 C 1.210938 -3.710938 1.460938 -3.765625 1.734375 -3.765625 C 2.234375 -3.765625 2.640625 -3.628906 2.953125 -3.359375 C 3.003906 -3.316406 3.035156 -3.273438 3.046875 -3.234375 C 3.066406 -3.203125 3.078125 -3.160156 3.078125 -3.109375 C 3.078125 -3.035156 3.054688 -2.96875 3.015625 -2.90625 C 2.972656 -2.851562 2.921875 -2.828125 2.859375 -2.828125 C 2.828125 -2.828125 2.796875 -2.832031 2.765625 -2.84375 C 2.734375 -2.851562 2.695312 -2.875 2.65625 -2.90625 C 2.507812 -3.007812 2.367188 -3.085938 2.234375 -3.140625 C 2.097656 -3.191406 1.929688 -3.21875 1.734375 -3.21875 C 1.492188 -3.21875 1.300781 -3.164062 1.15625 -3.0625 C 1.019531 -2.96875 0.953125 -2.835938 0.953125 -2.671875 C 0.953125 -2.523438 1.015625 -2.410156 1.140625 -2.328125 C 1.265625 -2.253906 1.472656 -2.1875 1.765625 -2.125 C 2.078125 -2.050781 2.332031 -1.972656 2.53125 -1.890625 C 2.726562 -1.804688 2.878906 -1.695312 2.984375 -1.5625 C 3.085938 -1.425781 3.140625 -1.257812 3.140625 -1.0625 C 3.140625 -0.84375 3.078125 -0.648438 2.953125 -0.484375 C 2.828125 -0.316406 2.65625 -0.1875 2.4375 -0.09375 C 2.21875 0 1.96875 0.046875 1.6875 0.046875 Z M 1.6875 0.046875 "/></g></g></g><g fill="#ff914d" fill-opacity="1"><g transform="translate(20.085271, 5.838431)"><g><path d="M 1.609375 0.03125 C 1.503906 0.03125 1.421875 0 1.359375 -0.0625 C 1.304688 -0.125 1.28125 -0.207031 1.28125 -0.3125 L 1.28125 -3.15625 L 0.3125 -3.15625 C 0.101562 -3.15625 0 -3.25 0 -3.4375 C 0 -3.625 0.101562 -3.71875 0.3125 -3.71875 L 2.90625 -3.71875 C 3.125 -3.71875 3.234375 -3.625 3.234375 -3.4375 C 3.234375 -3.25 3.125 -3.15625 2.90625 -3.15625 L 1.953125 -3.15625 L 1.953125 -0.3125 C 1.953125 -0.207031 1.921875 -0.125 1.859375 -0.0625 C 1.796875 0 1.710938 0.03125 1.609375 0.03125 Z M 1.609375 0.03125 "/></g></g></g><g fill="#ff914d" fill-opacity="1"><g transform="translate(23.256616, 5.838431)"><g><path d="M 3.765625 -0.40625 C 3.785156 -0.363281 3.796875 -0.316406 3.796875 -0.265625 C 3.796875 -0.179688 3.765625 -0.113281 3.703125 -0.0625 C 3.640625 -0.0078125 3.5625 0.015625 3.46875 0.015625 C 3.414062 0.015625 3.363281 0.00390625 3.3125 -0.015625 C 3.269531 -0.046875 3.234375 -0.09375 3.203125 -0.15625 L 2.890625 -0.875 L 1.03125 -0.875 L 0.71875 -0.15625 C 0.6875 -0.09375 0.644531 -0.046875 0.59375 -0.015625 C 0.550781 0.00390625 0.5 0.015625 0.4375 0.015625 C 0.351562 0.015625 0.273438 -0.0078125 0.203125 -0.0625 C 0.140625 -0.113281 0.109375 -0.179688 0.109375 -0.265625 C 0.109375 -0.316406 0.117188 -0.363281 0.140625 -0.40625 L 1.59375 -3.53125 C 1.625 -3.601562 1.671875 -3.65625 1.734375 -3.6875 C 1.804688 -3.726562 1.878906 -3.75 1.953125 -3.75 C 2.023438 -3.75 2.09375 -3.726562 2.15625 -3.6875 C 2.226562 -3.65625 2.28125 -3.601562 2.3125 -3.53125 Z M 1.265625 -1.390625 L 2.65625 -1.390625 L 1.953125 -2.953125 Z M 1.265625 -1.390625 "/></g></g></g><g fill="#ff914d" fill-opacity="1"><g transform="translate(27.106417, 5.838431)"><g><path d="M 3.234375 -2 C 3.304688 -2 3.367188 -1.972656 3.421875 -1.921875 C 3.472656 -1.878906 3.5 -1.820312 3.5 -1.75 L 3.5 -0.609375 C 3.5 -0.453125 3.476562 -0.335938 3.4375 -0.265625 C 3.394531 -0.203125 3.304688 -0.148438 3.171875 -0.109375 C 3.035156 -0.0546875 2.875 -0.0195312 2.6875 0 C 2.5 0.03125 2.316406 0.046875 2.140625 0.046875 C 1.765625 0.046875 1.4375 -0.0234375 1.15625 -0.171875 C 0.875 -0.328125 0.65625 -0.546875 0.5 -0.828125 C 0.351562 -1.117188 0.28125 -1.460938 0.28125 -1.859375 C 0.28125 -2.242188 0.351562 -2.578125 0.5 -2.859375 C 0.65625 -3.148438 0.867188 -3.375 1.140625 -3.53125 C 1.410156 -3.6875 1.734375 -3.765625 2.109375 -3.765625 C 2.609375 -3.765625 3.015625 -3.628906 3.328125 -3.359375 C 3.367188 -3.316406 3.398438 -3.273438 3.421875 -3.234375 C 3.441406 -3.203125 3.453125 -3.160156 3.453125 -3.109375 C 3.453125 -3.023438 3.429688 -2.957031 3.390625 -2.90625 C 3.347656 -2.851562 3.296875 -2.828125 3.234375 -2.828125 C 3.191406 -2.828125 3.15625 -2.832031 3.125 -2.84375 C 3.09375 -2.863281 3.054688 -2.882812 3.015625 -2.90625 C 2.859375 -3.019531 2.710938 -3.097656 2.578125 -3.140625 C 2.453125 -3.179688 2.300781 -3.203125 2.125 -3.203125 C 1.75 -3.203125 1.460938 -3.085938 1.265625 -2.859375 C 1.066406 -2.640625 0.96875 -2.304688 0.96875 -1.859375 C 0.96875 -0.941406 1.367188 -0.484375 2.171875 -0.484375 C 2.410156 -0.484375 2.648438 -0.519531 2.890625 -0.59375 L 2.890625 -1.515625 L 2.296875 -1.515625 C 2.210938 -1.515625 2.144531 -1.535156 2.09375 -1.578125 C 2.050781 -1.617188 2.03125 -1.679688 2.03125 -1.765625 C 2.03125 -1.835938 2.050781 -1.894531 2.09375 -1.9375 C 2.144531 -1.976562 2.210938 -2 2.296875 -2 Z M 3.234375 -2 "/></g></g></g><g fill="#ff914d" fill-opacity="1"><g transform="translate(30.908886, 5.838431)"><g><path d="M 0.734375 0 C 0.628906 0 0.546875 -0.0234375 0.484375 -0.078125 C 0.429688 -0.140625 0.40625 -0.222656 0.40625 -0.328125 L 0.40625 -3.390625 C 0.40625 -3.492188 0.429688 -3.570312 0.484375 -3.625 C 0.546875 -3.6875 0.628906 -3.71875 0.734375 -3.71875 L 2.625 -3.71875 C 2.726562 -3.71875 2.804688 -3.691406 2.859375 -3.640625 C 2.921875 -3.597656 2.953125 -3.535156 2.953125 -3.453125 C 2.953125 -3.359375 2.921875 -3.285156 2.859375 -3.234375 C 2.804688 -3.191406 2.726562 -3.171875 2.625 -3.171875 L 1.0625 -3.171875 L 1.0625 -2.15625 L 2.515625 -2.15625 C 2.617188 -2.15625 2.695312 -2.128906 2.75 -2.078125 C 2.8125 -2.035156 2.84375 -1.972656 2.84375 -1.890625 C 2.84375 -1.804688 2.8125 -1.738281 2.75 -1.6875 C 2.695312 -1.644531 2.617188 -1.625 2.515625 -1.625 L 1.0625 -1.625 L 1.0625 -0.53125 L 2.625 -0.53125 C 2.726562 -0.53125 2.804688 -0.503906 2.859375 -0.453125 C 2.921875 -0.410156 2.953125 -0.347656 2.953125 -0.265625 C 2.953125 -0.179688 2.921875 -0.113281 2.859375 -0.0625 C 2.804688 -0.0195312 2.726562 0 2.625 0 Z M 0.734375 0 "/></g></g></g><g fill="#ff914d" fill-opacity="1"><g transform="translate(33.954007, 5.838431)"><g><path d="M 0.65625 0.03125 C 0.539062 0.03125 0.445312 -0.00390625 0.375 -0.078125 C 0.300781 -0.148438 0.265625 -0.242188 0.265625 -0.359375 C 0.265625 -0.472656 0.300781 -0.566406 0.375 -0.640625 C 0.445312 -0.722656 0.539062 -0.765625 0.65625 -0.765625 C 0.769531 -0.765625 0.863281 -0.722656 0.9375 -0.640625 C 1.007812 -0.566406 1.046875 -0.472656 1.046875 -0.359375 C 1.046875 -0.242188 1.007812 -0.148438 0.9375 -0.078125 C 0.863281 -0.00390625 0.769531 0.03125 0.65625 0.03125 Z M 0.65625 0.03125 "/></g></g></g><g fill="#ff914d" fill-opacity="1"><g transform="translate(2.142625, 11.838431)"><g><path d="M 3.765625 -0.40625 C 3.785156 -0.363281 3.796875 -0.316406 3.796875 -0.265625 C 3.796875 -0.179688 3.765625 -0.113281 3.703125 -0.0625 C 3.640625 -0.0078125 3.5625 0.015625 3.46875 0.015625 C 3.414062 0.015625 3.363281 0.00390625 3.3125 -0.015625 C 3.269531 -0.046875 3.234375 -0.09375 3.203125 -0.15625 L 2.890625 -0.875 L 1.03125 -0.875 L 0.71875 -0.15625 C 0.6875 -0.09375 0.644531 -0.046875 0.59375 -0.015625 C 0.550781 0.00390625 0.5 0.015625 0.4375 0.015625 C 0.351562 0.015625 0.273438 -0.0078125 0.203125 -0.0625 C 0.140625 -0.113281 0.109375 -0.179688 0.109375 -0.265625 C 0.109375 -0.316406 0.117188 -0.363281 0.140625 -0.40625 L 1.59375 -3.53125 C 1.625 -3.601562 1.671875 -3.65625 1.734375 -3.6875 C 1.804688 -3.726562 1.878906 -3.75 1.953125 -3.75 C 2.023438 -3.75 2.09375 -3.726562 2.15625 -3.6875 C 2.226562 -3.65625 2.28125 -3.601562 2.3125 -3.53125 Z M 1.265625 -1.390625 L 2.65625 -1.390625 L 1.953125 -2.953125 Z M 1.265625 -1.390625 "/></g></g></g><g fill="#ff914d" fill-opacity="1"><g transform="translate(5.992426, 11.838431)"><g><path d="M 3.21875 -3.734375 C 3.3125 -3.734375 3.382812 -3.703125 3.4375 -3.640625 C 3.5 -3.578125 3.53125 -3.5 3.53125 -3.40625 L 3.53125 -0.3125 C 3.53125 -0.207031 3.5 -0.125 3.4375 -0.0625 C 3.382812 0 3.3125 0.03125 3.21875 0.03125 C 3.101562 0.03125 3.015625 -0.0078125 2.953125 -0.09375 L 1.03125 -2.59375 L 1.03125 -0.3125 C 1.03125 -0.207031 1 -0.125 0.9375 -0.0625 C 0.882812 0 0.8125 0.03125 0.71875 0.03125 C 0.613281 0.03125 0.535156 0 0.484375 -0.0625 C 0.429688 -0.125 0.40625 -0.207031 0.40625 -0.3125 L 0.40625 -3.40625 C 0.40625 -3.5 0.429688 -3.578125 0.484375 -3.640625 C 0.546875 -3.703125 0.628906 -3.734375 0.734375 -3.734375 C 0.835938 -3.734375 0.921875 -3.695312 0.984375 -3.625 L 2.890625 -1.125 L 2.890625 -3.40625 C 2.890625 -3.5 2.914062 -3.578125 2.96875 -3.640625 C 3.03125 -3.703125 3.113281 -3.734375 3.21875 -3.734375 Z M 3.21875 -3.734375 "/></g></g></g><g fill="#ff914d" fill-opacity="1"><g transform="translate(9.868526, 11.838431)"><g><path d="M 2.71875 -3.625 C 2.78125 -3.695312 2.851562 -3.734375 2.9375 -3.734375 C 3.019531 -3.734375 3.09375 -3.703125 3.15625 -3.640625 C 3.21875 -3.578125 3.25 -3.503906 3.25 -3.421875 C 3.25 -3.359375 3.222656 -3.296875 3.171875 -3.234375 L 1.984375 -1.765625 L 1.984375 -0.3125 C 1.984375 -0.195312 1.953125 -0.109375 1.890625 -0.046875 C 1.828125 0.00390625 1.742188 0.03125 1.640625 0.03125 C 1.535156 0.03125 1.453125 0.00390625 1.390625 -0.046875 C 1.328125 -0.109375 1.296875 -0.195312 1.296875 -0.3125 L 1.296875 -1.765625 L 0.109375 -3.234375 C 0.0546875 -3.296875 0.03125 -3.359375 0.03125 -3.421875 C 0.03125 -3.503906 0.0625 -3.578125 0.125 -3.640625 C 0.1875 -3.703125 0.257812 -3.734375 0.34375 -3.734375 C 0.425781 -3.734375 0.5 -3.695312 0.5625 -3.625 L 1.640625 -2.28125 Z M 2.71875 -3.625 "/></g></g></g><g fill="#ff914d" fill-opacity="1"><g transform="translate(13.092464, 11.838431)"><g><path d="M 5.0625 -3.53125 C 5.082031 -3.601562 5.117188 -3.65625 5.171875 -3.6875 C 5.222656 -3.726562 5.285156 -3.75 5.359375 -3.75 C 5.441406 -3.75 5.515625 -3.722656 5.578125 -3.671875 C 5.640625 -3.617188 5.671875 -3.546875 5.671875 -3.453125 C 5.671875 -3.421875 5.660156 -3.375 5.640625 -3.3125 L 4.5 -0.1875 C 4.476562 -0.113281 4.429688 -0.0546875 4.359375 -0.015625 C 4.296875 0.015625 4.226562 0.03125 4.15625 0.03125 C 4.070312 0.03125 4 0.015625 3.9375 -0.015625 C 3.875 -0.0546875 3.828125 -0.113281 3.796875 -0.1875 L 2.921875 -2.671875 L 2.03125 -0.1875 C 2.007812 -0.113281 1.960938 -0.0546875 1.890625 -0.015625 C 1.828125 0.015625 1.757812 0.03125 1.6875 0.03125 C 1.601562 0.03125 1.53125 0.015625 1.46875 -0.015625 C 1.40625 -0.0546875 1.363281 -0.113281 1.34375 -0.1875 L 0.203125 -3.3125 C 0.179688 -3.363281 0.171875 -3.410156 0.171875 -3.453125 C 0.171875 -3.546875 0.203125 -3.617188 0.265625 -3.671875 C 0.335938 -3.722656 0.414062 -3.75 0.5 -3.75 C 0.570312 -3.75 0.632812 -3.726562 0.6875 -3.6875 C 0.75 -3.65625 0.789062 -3.601562 0.8125 -3.53125 L 1.71875 -0.953125 L 2.640625 -3.515625 C 2.660156 -3.585938 2.695312 -3.644531 2.75 -3.6875 C 2.8125 -3.726562 2.875 -3.75 2.9375 -3.75 C 3 -3.75 3.0625 -3.726562 3.125 -3.6875 C 3.1875 -3.644531 3.226562 -3.585938 3.25 -3.515625 L 4.140625 -0.921875 Z M 5.0625 -3.53125 "/></g></g></g><g fill="#ff914d" fill-opacity="1"><g transform="translate(18.877704, 11.838431)"><g><path d="M 3.296875 -3.734375 C 3.398438 -3.734375 3.484375 -3.703125 3.546875 -3.640625 C 3.609375 -3.578125 3.640625 -3.5 3.640625 -3.40625 L 3.640625 -0.3125 C 3.640625 -0.207031 3.609375 -0.125 3.546875 -0.0625 C 3.484375 0 3.398438 0.03125 3.296875 0.03125 C 3.203125 0.03125 3.125 0 3.0625 -0.0625 C 3 -0.125 2.96875 -0.207031 2.96875 -0.3125 L 2.96875 -1.609375 L 1.0625 -1.609375 L 1.0625 -0.3125 C 1.0625 -0.207031 1.03125 -0.125 0.96875 -0.0625 C 0.914062 0 0.835938 0.03125 0.734375 0.03125 C 0.628906 0.03125 0.546875 0 0.484375 -0.0625 C 0.429688 -0.125 0.40625 -0.207031 0.40625 -0.3125 L 0.40625 -3.40625 C 0.40625 -3.5 0.429688 -3.578125 0.484375 -3.640625 C 0.546875 -3.703125 0.628906 -3.734375 0.734375 -3.734375 C 0.835938 -3.734375 0.914062 -3.703125 0.96875 -3.640625 C 1.03125 -3.578125 1.0625 -3.5 1.0625 -3.40625 L 1.0625 -2.15625 L 2.96875 -2.15625 L 2.96875 -3.40625 C 2.96875 -3.5 3 -3.578125 3.0625 -3.640625 C 3.125 -3.703125 3.203125 -3.734375 3.296875 -3.734375 Z M 3.296875 -3.734375 "/></g></g></g><g fill="#ff914d" fill-opacity="1"><g transform="translate(22.853729, 11.838431)"><g><path d="M 0.734375 0 C 0.628906 0 0.546875 -0.0234375 0.484375 -0.078125 C 0.429688 -0.140625 0.40625 -0.222656 0.40625 -0.328125 L 0.40625 -3.390625 C 0.40625 -3.492188 0.429688 -3.570312 0.484375 -3.625 C 0.546875 -3.6875 0.628906 -3.71875 0.734375 -3.71875 L 2.625 -3.71875 C 2.726562 -3.71875 2.804688 -3.691406 2.859375 -3.640625 C 2.921875 -3.597656 2.953125 -3.535156 2.953125 -3.453125 C 2.953125 -3.359375 2.921875 -3.285156 2.859375 -3.234375 C 2.804688 -3.191406 2.726562 -3.171875 2.625 -3.171875 L 1.0625 -3.171875 L 1.0625 -2.15625 L 2.515625 -2.15625 C 2.617188 -2.15625 2.695312 -2.128906 2.75 -2.078125 C 2.8125 -2.035156 2.84375 -1.972656 2.84375 -1.890625 C 2.84375 -1.804688 2.8125 -1.738281 2.75 -1.6875 C 2.695312 -1.644531 2.617188 -1.625 2.515625 -1.625 L 1.0625 -1.625 L 1.0625 -0.53125 L 2.625 -0.53125 C 2.726562 -0.53125 2.804688 -0.503906 2.859375 -0.453125 C 2.921875 -0.410156 2.953125 -0.347656 2.953125 -0.265625 C 2.953125 -0.179688 2.921875 -0.113281 2.859375 -0.0625 C 2.804688 -0.0195312 2.726562 0 2.625 0 Z M 0.734375 0 "/></g></g></g><g fill="#ff914d" fill-opacity="1"><g transform="translate(25.898851, 11.838431)"><g><path d="M 3.375 -0.421875 C 3.414062 -0.359375 3.4375 -0.300781 3.4375 -0.25 C 3.4375 -0.164062 3.398438 -0.0976562 3.328125 -0.046875 C 3.265625 0.00390625 3.191406 0.03125 3.109375 0.03125 C 3.046875 0.03125 2.988281 0.0195312 2.9375 0 C 2.894531 -0.03125 2.851562 -0.0703125 2.8125 -0.125 L 2.109375 -1.1875 C 2.046875 -1.300781 1.972656 -1.378906 1.890625 -1.421875 C 1.816406 -1.460938 1.710938 -1.484375 1.578125 -1.484375 L 1.0625 -1.484375 L 1.0625 -0.3125 C 1.0625 -0.207031 1.03125 -0.125 0.96875 -0.0625 C 0.914062 0 0.835938 0.03125 0.734375 0.03125 C 0.628906 0.03125 0.546875 0 0.484375 -0.0625 C 0.429688 -0.125 0.40625 -0.207031 0.40625 -0.3125 L 0.40625 -3.390625 C 0.40625 -3.492188 0.429688 -3.570312 0.484375 -3.625 C 0.546875 -3.6875 0.628906 -3.71875 0.734375 -3.71875 L 2.046875 -3.71875 C 2.460938 -3.71875 2.78125 -3.625 3 -3.4375 C 3.21875 -3.25 3.328125 -2.972656 3.328125 -2.609375 C 3.328125 -2.328125 3.242188 -2.09375 3.078125 -1.90625 C 2.921875 -1.71875 2.691406 -1.597656 2.390625 -1.546875 C 2.492188 -1.523438 2.582031 -1.484375 2.65625 -1.421875 C 2.738281 -1.359375 2.816406 -1.269531 2.890625 -1.15625 Z M 1.953125 -2.015625 C 2.203125 -2.015625 2.382812 -2.0625 2.5 -2.15625 C 2.625 -2.25 2.6875 -2.394531 2.6875 -2.59375 C 2.6875 -2.800781 2.625 -2.953125 2.5 -3.046875 C 2.382812 -3.140625 2.203125 -3.1875 1.953125 -3.1875 L 1.0625 -3.1875 L 1.0625 -2.015625 Z M 1.953125 -2.015625 "/></g></g></g><g fill="#ff914d" fill-opacity="1"><g transform="translate(29.501464, 11.838431)"><g><path d="M 0.734375 0 C 0.628906 0 0.546875 -0.0234375 0.484375 -0.078125 C 0.429688 -0.140625 0.40625 -0.222656 0.40625 -0.328125 L 0.40625 -3.390625 C 0.40625 -3.492188 0.429688 -3.570312 0.484375 -3.625 C 0.546875 -3.6875 0.628906 -3.71875 0.734375 -3.71875 L 2.625 -3.71875 C 2.726562 -3.71875 2.804688 -3.691406 2.859375 -3.640625 C 2.921875 -3.597656 2.953125 -3.535156 2.953125 -3.453125 C 2.953125 -3.359375 2.921875 -3.285156 2.859375 -3.234375 C 2.804688 -3.191406 2.726562 -3.171875 2.625 -3.171875 L 1.0625 -3.171875 L 1.0625 -2.15625 L 2.515625 -2.15625 C 2.617188 -2.15625 2.695312 -2.128906 2.75 -2.078125 C 2.8125 -2.035156 2.84375 -1.972656 2.84375 -1.890625 C 2.84375 -1.804688 2.8125 -1.738281 2.75 -1.6875 C 2.695312 -1.644531 2.617188 -1.625 2.515625 -1.625 L 1.0625 -1.625 L 1.0625 -0.53125 L 2.625 -0.53125 C 2.726562 -0.53125 2.804688 -0.503906 2.859375 -0.453125 C 2.921875 -0.410156 2.953125 -0.347656 2.953125 -0.265625 C 2.953125 -0.179688 2.921875 -0.113281 2.859375 -0.0625 C 2.804688 -0.0195312 2.726562 0 2.625 0 Z M 0.734375 0 "/></g></g></g><g fill="#ff914d" fill-opacity="1"><g transform="translate(32.546586, 11.838431)"><g><path d="M 0.65625 0.03125 C 0.539062 0.03125 0.445312 -0.00390625 0.375 -0.078125 C 0.300781 -0.148438 0.265625 -0.242188 0.265625 -0.359375 C 0.265625 -0.472656 0.300781 -0.566406 0.375 -0.640625 C 0.445312 -0.722656 0.539062 -0.765625 0.65625 -0.765625 C 0.769531 -0.765625 0.863281 -0.722656 0.9375 -0.640625 C 1.007812 -0.566406 1.046875 -0.472656 1.046875 -0.359375 C 1.046875 -0.242188 1.007812 -0.148438 0.9375 -0.078125 C 0.863281 -0.00390625 0.769531 0.03125 0.65625 0.03125 Z M 0.65625 0.03125 "/></g></g></g></g></g><g clip-path="url(#0072c2a6d5)"><g clip-path="url(#52561bd2db)"><path stroke-linecap="butt" transform="matrix(0.75, 0, 0, 0.75, 131.644184, 48.053932)" fill="none" stroke-linejoin="miter" d="M 7.016088 0.00100734 C 3.141088 0.00100734 0.000463039 3.141633 0.000463039 7.016633 C 0.000463039 10.891633 3.141088 14.032258 7.016088 14.032258 C 10.891089 14.032258 14.031714 10.891633 14.031714 7.016633 C 14.031714 3.141633 10.891089 0.00100734 7.016088 0.00100734 Z M 7.016088 0.00100734 " stroke="#ff914d" stroke-width="2" stroke-opacity="1" stroke-miterlimit="4"/></g></g><g transform="matrix(1, 0, 0, 1, 135, 50)"><g clip-path="url(#ca2a452e5f)"><g clip-path="url(#b8bf1e6370)"><g fill="#ff914d" fill-opacity="1"><g transform="translate(0.326948, 4.463163)"><g><path d="M 1.921875 0.046875 C 1.566406 0.046875 1.257812 -0.0195312 1 -0.15625 C 0.75 -0.289062 0.550781 -0.484375 0.40625 -0.734375 C 0.269531 -0.984375 0.203125 -1.273438 0.203125 -1.609375 C 0.203125 -1.953125 0.269531 -2.242188 0.40625 -2.484375 C 0.550781 -2.734375 0.75 -2.925781 1 -3.0625 C 1.257812 -3.207031 1.566406 -3.28125 1.921875 -3.28125 C 2.066406 -3.28125 2.210938 -3.265625 2.359375 -3.234375 C 2.515625 -3.203125 2.648438 -3.148438 2.765625 -3.078125 C 2.847656 -3.035156 2.90625 -2.976562 2.9375 -2.90625 C 2.96875 -2.84375 2.976562 -2.773438 2.96875 -2.703125 C 2.96875 -2.628906 2.941406 -2.5625 2.890625 -2.5 C 2.847656 -2.4375 2.789062 -2.394531 2.71875 -2.375 C 2.65625 -2.363281 2.585938 -2.375 2.515625 -2.40625 C 2.328125 -2.5 2.140625 -2.546875 1.953125 -2.546875 C 1.671875 -2.546875 1.457031 -2.460938 1.3125 -2.296875 C 1.164062 -2.140625 1.09375 -1.910156 1.09375 -1.609375 C 1.09375 -1.304688 1.164062 -1.078125 1.3125 -0.921875 C 1.457031 -0.765625 1.671875 -0.6875 1.953125 -0.6875 C 2.035156 -0.6875 2.117188 -0.691406 2.203125 -0.703125 C 2.296875 -0.722656 2.390625 -0.757812 2.484375 -0.8125 C 2.578125 -0.84375 2.65625 -0.847656 2.71875 -0.828125 C 2.789062 -0.816406 2.847656 -0.78125 2.890625 -0.71875 C 2.941406 -0.664062 2.972656 -0.601562 2.984375 -0.53125 C 2.992188 -0.46875 2.984375 -0.398438 2.953125 -0.328125 C 2.921875 -0.253906 2.863281 -0.195312 2.78125 -0.15625 C 2.675781 -0.09375 2.546875 -0.0390625 2.390625 0 C 2.234375 0.03125 2.078125 0.046875 1.921875 0.046875 Z M 1.921875 0.046875 "/></g></g></g></g></g></g></svg>